<svg version="1.1" xmlns="http://www.w3.org/2000/svg" xmlns:xlink="http://www.w3.org/1999/xlink" width="103.25" height="103.25" viewBox="0,0,103.25,103.25"><g transform="translate(-188.375,-128.20568)"><g stroke-miterlimit="10"><path d="M190.125,207.33069c0,-19.46993 0,-44.82797 0,-56.75c0,-12.42391 8.70109,-20.625 21.125,-20.625c11.04693,0 38.16912,0 57.5,0c11.9823,0 21.125,13.00759 21.125,22.875c0,11.09288 0,37.4903 0,56.25c0,11.48511 -5.6399,20.625 -17.125,20.625c-11.5284,0 -43.11203,0 -63.75,0c-10.21075,0 -18.875,-2.90507 -18.875,-22.375z" fill="#000000" stroke="none" stroke-width="0" stroke-linecap="butt"/><path d="M275.28578,228.63118c-14.99918,1.89437 -52.61664,1.27886 -66.84801,1.41233c-9.51092,0.0892 -16.98042,-7.15571 -17.77073,-16.63415c-0.68426,-8.20654 0.58407,-38.70711 0.58407,-38.70711l9.65702,13.74884l77.96903,-0.7221l10.36808,-14.11245l-0.86352,40.44795c0,0 -0.81277,6.88749 -3.2419,9.73937c-3.52449,4.13786 -9.15715,4.7393 -9.85404,4.82732z" fill-opacity="0.16471" fill="#9c38ff" stroke="none" stroke-width="0" stroke-linecap="butt"/><path d="M190.125,207.33069c0,-19.46993 0,-44.82797 0,-56.75c0,-12.42391 8.70109,-20.625 21.125,-20.625c11.04693,0 38.16912,0 57.5,0c11.9823,0 21.125,13.00759 21.125,22.875c0,11.09288 0,37.4903 0,56.25c0,11.48511 -5.6399,20.625 -17.125,20.625c-11.5284,0 -43.11203,0 -63.75,0c-10.21075,0 -18.875,-2.90507 -18.875,-22.375z" fill="none" stroke="#8000ff" stroke-width="3.5" stroke-linecap="butt"/><path d="M208.6,209.23069c0,0 -1.45636,-58.8433 0.85419,-57.08904c0.59783,0.45389 30.14581,40.28904 30.14581,40.28904c0,0 28.62405,-43.20866 28.65905,-42.77264c0.58366,7.2714 2.14094,57.77264 2.14094,57.77264" fill="none" stroke="#8000ff" stroke-width="5" stroke-linecap="round"/><path d="M202.07879,153.84584c0,-4.1254 3.34429,-7.4697 7.4697,-7.4697c4.1254,0 7.4697,3.34429 7.4697,7.4697c0,4.1254 -3.34429,7.4697 -7.4697,7.4697c-4.1254,0 -7.4697,-3.3443 -7.4697,-7.4697z" fill="#000000" stroke="#8000ff" stroke-width="4" stroke-linecap="butt"/><path d="M260,151.74281c0,-4.1254 3.34429,-7.4697 7.4697,-7.4697c4.1254,0 7.4697,3.34429 7.4697,7.4697c0,4.1254 -3.3443,7.4697 -7.4697,7.4697c-4.1254,0 -7.4697,-3.3443 -7.4697,-7.4697z" fill="#000000" stroke="#8000ff" stroke-width="4" stroke-linecap="butt"/><path d="M200.4,205.961c0,-4.1254 3.34429,-7.4697 7.4697,-7.4697c4.1254,0 7.4697,3.3443 7.4697,7.4697c0,4.1254 -3.3443,7.4697 -7.4697,7.4697c-4.1254,0 -7.4697,-3.34429 -7.4697,-7.4697z" fill="#1a092a" stroke="#8000ff" stroke-width="4" stroke-linecap="butt"/><path d="M232.26667,194.32463c0,-4.1254 3.3443,-7.4697 7.4697,-7.4697c4.1254,0 7.4697,3.3443 7.4697,7.4697c0,4.1254 -3.34429,7.4697 -7.4697,7.4697c-4.1254,0 -7.4697,-3.34429 -7.4697,-7.4697z" fill="#1a092a" stroke="#8000ff" stroke-width="4" stroke-linecap="butt"/><path d="M262.06061,203.68221c0,-4.1254 3.3443,-7.4697 7.4697,-7.4697c4.1254,0 7.4697,3.34429 7.4697,7.4697c0,4.1254 -3.34429,7.4697 -7.4697,7.4697c-4.1254,0 -7.4697,-3.34429 -7.4697,-7.4697z" fill="#1a092a" stroke="#8000ff" stroke-width="4" stroke-linecap="butt"/></g></g></svg>