<svg version="1.1" xmlns="http://www.w3.org/2000/svg" xmlns:xlink="http://www.w3.org/1999/xlink" width="293.44112" height="186.3267" viewBox="0,0,293.44112,186.3267"><g transform="translate(-94.78998,-87.03521)"><g stroke-miterlimit="10"><path d="M381.12749,213.11856c0,7.1797 -54.99538,-6.66667 -110.5,-6.66667c-65.28181,0 -142.36615,20.49336 -166.80705,-1.53165c-5.49614,-6.25061 -10.50699,-19.5879 -8.62819,-32.79783c1.8788,-13.20992 16.18056,-20.30323 16.18056,-20.30323c0,0 -10.22992,15.21622 -9.19141,25.88613c1.03851,10.66991 6.52844,19.98276 13.99589,23.47624c15.40223,7.20559 28.48811,4.60368 53.78354,4.60368c25.99333,0 71.88387,-8.57698 116.83429,-7.15402c75.72556,2.39718 94.33238,10.66998 94.33238,14.48736z" fill-opacity="0.67451" fill="#8000ff" stroke="none" stroke-width="0" stroke-linecap="butt"/><path d="M371.12749,220.95189v-13.83334h13.83333v13.83334z" fill="#ffffff" stroke-opacity="0.67451" stroke="#8000ff" stroke-width="2.5" stroke-linecap="butt"/><path d="M207.12749,146.78523c0,0 30.34893,8.24782 30.33333,-14c-0.01133,-16.16183 -40.30103,-7.80065 -42,-22.66667c-1.69898,-14.86602 35.33333,-13.33333 35.33333,-13.33333" fill="none" stroke-opacity="0.67451" stroke="#8000ff" stroke-width="10" stroke-linecap="round"/><path d="M127.79415,155.78523l-0.33333,-61.33333l27.33333,16.33333l18.03702,-17.30726l14.29632,57.64059l-15.35968,-0.44707l-6.26097,-29.12599l-9.68392,8.71328l-15.64203,-11.10686l-0.32267,36.17087z" fill="#ffffff" stroke-opacity="0.67451" stroke="#8000ff" stroke-width="3.5" stroke-linecap="butt"/><path d="M224.46082,97.11855c0,-4.60237 3.73096,-8.33333 8.33333,-8.33333c4.60237,0 8.33333,3.73096 8.33333,8.33333c0,4.60237 -3.73096,8.33333 -8.33333,8.33333c-4.60237,0 -8.33333,-3.73096 -8.33333,-8.33333z" fill="#ffffff" stroke-opacity="0.67451" stroke="#8000ff" stroke-width="3.5" stroke-linecap="butt"/><path d="M189.12748,110.11855c0,-4.60237 3.73096,-8.33334 8.33334,-8.33334c4.60237,0 8.33334,3.73096 8.33334,8.33334c0,4.60237 -3.73096,8.33333 -8.33334,8.33333c-4.60237,0 -8.33334,-3.73095 -8.33334,-8.33333z" fill="#ffffff" stroke-opacity="0.67451" stroke="#8000ff" stroke-width="3.5" stroke-linecap="butt"/><path d="M197.79415,148.78523c0,-4.60237 3.73096,-8.33334 8.33334,-8.33334c4.60237,0 8.33334,3.73096 8.33334,8.33334c0,4.60237 -3.73096,8.33333 -8.33334,8.33333c-4.60237,0 -8.33334,-3.73095 -8.33334,-8.33333z" fill="#ffffff" stroke-opacity="0.67451" stroke="#8000ff" stroke-width="3.5" stroke-linecap="butt"/><path d="M206.96081,146.78523c0,0 30.34894,8.24782 30.33334,-14c-0.01133,-16.16182 -40.30103,-7.80063 -42,-22.66666c-1.69897,-14.86603 35.33333,-13.33334 35.33333,-13.33334" fill="none" stroke="#ffffff" stroke-width="4.5" stroke-linecap="round"/><text transform="translate(100.29415,202.74356) scale(1.67837,1.78927)" font-size="40" xml:space="preserve" fill="#ffffff" stroke-opacity="0.67451" stroke="#8000ff" stroke-width="1.6" stroke-linecap="butt" font-family="&quot;ヒラギノ角ゴ Pro W3&quot;, &quot;Hiragino Kaku Gothic Pro&quot;, Osaka, &quot;メイリオ&quot;, Meiryo, &quot;ＭＳ Ｐゴシック&quot;, &quot;MS PGothic&quot;" font-weight="normal" text-anchor="start"><tspan x="0" dy="0">memer</tspan></text><text transform="translate(229.96081,249.74356) scale(1.67837,1.78927)" font-size="40" xml:space="preserve" fill="#ffffff" stroke-opacity="0.67451" stroke="#8000ff" stroke-width="1.6" stroke-linecap="butt" font-family="&quot;ヒラギノ角ゴ Pro W3&quot;, &quot;Hiragino Kaku Gothic Pro&quot;, Osaka, &quot;メイリオ&quot;, Meiryo, &quot;ＭＳ Ｐゴシック&quot;, &quot;MS PGothic&quot;" font-weight="normal" text-anchor="start"><tspan x="0" dy="0">group</tspan></text><path d="M254.79415,222.95189v-7.33334h7.33333v7.33334z" fill="#ffffff" stroke-opacity="0.67451" stroke="#8000ff" stroke-width="2.5" stroke-linecap="butt"/><path d="M353.96082,228.45189v-11.83333h11.83333v11.83333z" fill="#ffffff" stroke-opacity="0.67451" stroke="#8000ff" stroke-width="2.5" stroke-linecap="butt"/><path d="M352.79415,260.28523v-11h11v11z" fill="#ffffff" stroke-opacity="0.67451" stroke="#8000ff" stroke-width="2.5" stroke-linecap="butt"/><path d="M366.79415,213.11857v-11h11v11z" fill="#ffffff" stroke-opacity="0.67451" stroke="#8000ff" stroke-width="2.5" stroke-linecap="butt"/><path d="M373.96082,240.61856v-8h8v8z" fill="#ffffff" stroke-opacity="0.67451" stroke="#8000ff" stroke-width="2.5" stroke-linecap="butt"/><path d="M354.79415,240.28523v-9h9v9z" fill="#ffffff" stroke-opacity="0.67451" stroke="#8000ff" stroke-width="2.5" stroke-linecap="butt"/><path d="M336.62748,248.95189v-11.83333h11.83334v11.83333z" fill="#ffffff" stroke-opacity="0.67451" stroke="#8000ff" stroke-width="2.5" stroke-linecap="butt"/></g></g></svg>