<svg version="1.1" xmlns="http://www.w3.org/2000/svg" xmlns:xlink="http://www.w3.org/1999/xlink" width="136.18442" height="150.2207" viewBox="0,0,136.18442,150.2207"><g transform="translate(-172.53279,-105.35521)"><g stroke-miterlimit="10"><path d="M186.82683,222.49024c-30.25824,-12.91889 -3.07382,-42.84005 -3.07382,-42.84005c0,0 -11.27693,26.69661 15.43067,39.85136c31.85605,15.69061 64.58869,15.48697 64.58869,15.48697c0,0 -28.41575,8.22174 -76.94554,-12.49828z" fill-opacity="0.67451" fill="#8000ff" stroke="none" stroke-width="0" stroke-linecap="butt"/><path d="M257.63388,165.10523c0,0 30.34893,8.24782 30.33333,-14c-0.01133,-16.16183 -40.30103,-7.80065 -42,-22.66667c-1.69898,-14.86602 35.33333,-13.33333 35.33333,-13.33333" fill="none" stroke-opacity="0.67451" stroke="#8000ff" stroke-width="10" stroke-linecap="round"/><path d="M178.30054,174.10523l-0.33333,-61.33333l27.33333,16.33333l18.03702,-17.30726l14.29632,57.64059l-15.35968,-0.44707l-6.26097,-29.12599l-9.68392,8.71328l-15.64203,-11.10686l-0.32267,36.17087z" fill="#ffffff" stroke-opacity="0.67451" stroke="#8000ff" stroke-width="3.5" stroke-linecap="butt"/><path d="M274.96721,115.43854c0,-4.60237 3.73096,-8.33333 8.33333,-8.33333c4.60237,0 8.33333,3.73096 8.33333,8.33333c0,4.60237 -3.73096,8.33333 -8.33333,8.33333c-4.60237,0 -8.33333,-3.73096 -8.33333,-8.33333z" fill="#ffffff" stroke-opacity="0.67451" stroke="#8000ff" stroke-width="3.5" stroke-linecap="butt"/><path d="M239.63387,128.43854c0,-4.60237 3.73096,-8.33334 8.33334,-8.33334c4.60237,0 8.33334,3.73096 8.33334,8.33334c0,4.60237 -3.73096,8.33333 -8.33334,8.33333c-4.60237,0 -8.33334,-3.73095 -8.33334,-8.33333z" fill="#ffffff" stroke-opacity="0.67451" stroke="#8000ff" stroke-width="3.5" stroke-linecap="butt"/><path d="M248.30054,167.10523c0,-4.60237 3.73096,-8.33334 8.33334,-8.33334c4.60237,0 8.33334,3.73096 8.33334,8.33334c0,4.60237 -3.73096,8.33333 -8.33334,8.33333c-4.60237,0 -8.33334,-3.73095 -8.33334,-8.33333z" fill="#ffffff" stroke-opacity="0.67451" stroke="#8000ff" stroke-width="3.5" stroke-linecap="butt"/><path d="M257.4672,165.10523c0,0 30.34894,8.24782 30.33334,-14c-0.01133,-16.16182 -40.30103,-7.80063 -42,-22.66666c-1.69897,-14.86603 35.33333,-13.33334 35.33333,-13.33334" fill="none" stroke="#ffffff" stroke-width="4.5" stroke-linecap="round"/><text transform="translate(185.30054,213.56356) scale(1.83156,1.78927)" font-size="40" xml:space="preserve" fill="#ffffff" stroke-opacity="0.67451" stroke="#8000ff" stroke-width="1.6" stroke-linecap="butt" font-family="&quot;ヒラギノ角ゴ Pro W3&quot;, &quot;Hiragino Kaku Gothic Pro&quot;, Osaka, &quot;メイリオ&quot;, Meiryo, &quot;ＭＳ Ｐゴシック&quot;, &quot;MS PGothic&quot;" font-weight="normal" text-anchor="start"><tspan x="0" dy="0">m</tspan></text><g fill="#ffffff" stroke-opacity="0.67451" stroke="#8000ff" stroke-linecap="butt"><text transform="translate(239.9672,226.08355) scale(2.09579,2.23427)" font-size="40" xml:space="preserve" fill="#ffffff" stroke-width="1.6" font-family="&quot;ヒラギノ角ゴ Pro W3&quot;, &quot;Hiragino Kaku Gothic Pro&quot;, Osaka, &quot;メイリオ&quot;, Meiryo, &quot;ＭＳ Ｐゴシック&quot;, &quot;MS PGothic&quot;" font-weight="normal" text-anchor="start"><tspan x="0" dy="0">g</tspan></text><path d="M270.9767,192.62868v-9.15718h9.15716v9.15718z" stroke-width="2.5"/></g><path d="M285.96721,186.27189v-11.83333h11.83333v11.83333z" fill="#ffffff" stroke-opacity="0.67451" stroke="#8000ff" stroke-width="2.5" stroke-linecap="butt"/><path d="M226.4672,189.10523v-8.33333h8.33333v8.33333z" fill="#ffffff" stroke-opacity="0.67451" stroke="#8000ff" stroke-width="2.5" stroke-linecap="butt"/><path d="M246.63387,210.93856v-8h8v8z" fill="#ffffff" stroke-opacity="0.67451" stroke="#8000ff" stroke-width="2.5" stroke-linecap="butt"/><path d="M283.4672,205.77189v-9h9v9z" fill="#ffffff" stroke-opacity="0.67451" stroke="#8000ff" stroke-width="2.5" stroke-linecap="butt"/><path d="M270.80053,232.77189v-10h10.00001v10z" fill="#ffffff" stroke-opacity="0.67451" stroke="#8000ff" stroke-width="2.5" stroke-linecap="butt"/><g fill="#ffffff" stroke-opacity="0.67451" stroke="#8000ff" stroke-width="2.5" stroke-linecap="butt"><path d="M293.63388,234.27189v-13.83334h13.83333v13.83334z"/><path d="M289.30054,226.43857v-11h11v11z"/></g></g></g></svg>